<?xml version="1.0" encoding="utf-8"?>
<!-- Generator: Adobe Illustrator 17.0.2, SVG Export Plug-In . SVG Version: 6.00 Build 0)  -->
<!DOCTYPE svg PUBLIC "-//W3C//DTD SVG 1.1//EN" "http://www.w3.org/Graphics/SVG/1.1/DTD/svg11.dtd">
<svg version="1.1" id="Layer_1" xmlns="http://www.w3.org/2000/svg" xmlns:xlink="http://www.w3.org/1999/xlink" x="0px" y="0px"
	 width="323.607px" height="323.54px" viewBox="0 0 323.607 323.54" enable-background="new 0 0 323.607 323.54"
	 xml:space="preserve">
<g>
	<g>
		<path d="M303.378,0H80.909C69.741,0,60.686,10.076,60.686,21.302v19.351h202.252c11.185,0,20.223,10.074,20.223,21.3v161.634
			h20.217c11.188,0,20.229-8.092,20.229-19.336V21.302C323.607,10.076,314.566,0,303.378,0z M242.713,60.981H20.244
			C9.133,60.981,0,71.304,0,82.745v162.16c0,11.409,9.133,19.318,20.244,19.318H95.47l108.764,56.759
			c10.067,4.945,18.252,3.031,18.252-8.462v-48.296h20.227c11.127,0,20.225-7.908,20.225-19.318V82.745
			C262.939,71.304,253.841,60.981,242.713,60.981z M202.255,193.095c0,5.63-4.528,10.161-10.1,10.161H70.804
			c-5.586,0-10.118-4.531-10.118-10.161v-20.318c0-5.611,4.531-10.177,10.118-10.177h121.351c5.573,0,10.1,4.566,10.1,10.177
			V193.095z M202.255,132.124c0,5.632-4.528,10.161-10.1,10.161H70.804c-5.586,0-10.118-4.529-10.118-10.161v-20.331
			c0-5.632,4.531-10.161,10.118-10.161h121.351c5.573,0,10.1,4.529,10.1,10.161V132.124z"/>
	</g>
</g>
</svg>
